<svg data-v-d3f97b9e="" xmlns="http://www.w3.org/2000/svg" viewBox="0 0 820 90"><!----><!----><!----><g data-v-d3f97b9e="" id="e4965456-af1e-4b7d-ad70-6c6ebfc77f74" fill="black" transform="matrix(11.650484142434854,0,0,11.650484142434854,109.5841108081558,-41.12620797421627)"><path d="M0.36 8.59L1.87 8.59L1.87 6.45L1.87 6.45Q2.01 6.20 2.48 6.20L2.48 6.20L2.48 6.20Q2.81 6.20 2.91 6.29L2.91 6.29L3.07 4.63L3.07 4.63Q2.94 4.59 2.83 4.59L2.83 4.59L2.83 4.59Q1.79 4.59 1.60 5.73L1.60 5.73L1.47 4.62L1.09 4.62L0.08 4.87L0.08 5.39L0.36 5.57L0.36 8.59ZM5.53 6.17L5.53 6.17L4.82 6.17L4.82 5.78L4.82 5.78Q4.82 5.61 4.83 5.50L4.83 5.50L4.83 5.50Q4.84 5.39 4.89 5.29L4.89 5.29L4.89 5.29Q4.93 5.18 5.02 5.14L5.02 5.14L5.02 5.14Q5.11 5.09 5.25 5.09L5.25 5.09L5.25 5.09Q5.41 5.09 5.47 5.33L5.47 5.33L5.47 5.33Q5.53 5.58 5.53 6.17ZM5.16 8.68L5.16 8.68L5.16 8.68Q5.44 8.68 5.74 8.62L5.74 8.62L5.74 8.62Q6.05 8.55 6.39 8.37L6.39 8.37L6.39 8.37Q6.72 8.18 6.89 7.90L6.89 7.90L6.62 7.42L6.62 7.42Q6.49 7.55 6.29 7.63L6.29 7.63L6.29 7.63Q6.10 7.72 5.91 7.77L5.91 7.77L5.91 7.77Q5.72 7.81 5.56 7.81L5.56 7.81L5.56 7.81Q5.39 7.81 5.27 7.78L5.27 7.78L5.27 7.78Q5.16 7.75 5.04 7.67L5.04 7.67L5.04 7.67Q4.93 7.58 4.87 7.41L4.87 7.41L4.87 7.41Q4.82 7.23 4.82 6.95L4.82 6.95L4.82 6.86L6.95 6.86L6.95 6.35L6.95 6.35Q6.95 5.39 6.55 4.96L6.55 4.96L6.55 4.96Q6.16 4.53 5.24 4.53L5.24 4.53L5.24 4.53Q4.28 4.53 3.75 5.06L3.75 5.06L3.75 5.06Q3.22 5.60 3.22 6.65L3.22 6.65L3.22 6.65Q3.22 7.08 3.32 7.44L3.32 7.44L3.32 7.44Q3.42 7.80 3.64 8.08L3.64 8.08L3.64 8.08Q3.86 8.37 4.25 8.53L4.25 8.53L4.25 8.53Q4.63 8.68 5.16 8.68ZM9.42 8.22L9.47 8.17L9.62 8.59L10.90 8.59L10.77 8.22L10.77 6.32L10.77 6.32Q10.77 5.81 10.69 5.48L10.69 5.48L10.69 5.48Q10.61 5.14 10.42 4.93L10.42 4.93L10.42 4.93Q10.23 4.71 9.93 4.62L9.93 4.62L9.93 4.62Q9.62 4.53 9.16 4.53L9.16 4.53L9.16 4.53Q8.63 4.53 8.12 4.68L8.12 4.68L8.12 4.68Q7.61 4.84 7.29 5.04L7.29 5.04L7.59 5.68L7.59 5.68Q7.77 5.59 8.08 5.52L8.08 5.52L8.08 5.52Q8.40 5.45 8.68 5.45L8.68 5.45L8.68 5.45Q9.02 5.45 9.17 5.57L9.17 5.57L9.17 5.57Q9.32 5.68 9.32 5.97L9.32 5.97L9.32 6.05L9.32 6.05Q9.17 6.05 8.99 6.07L8.99 6.07L8.99 6.07Q8.82 6.08 8.60 6.12L8.60 6.12L8.60 6.12Q8.38 6.16 8.18 6.23L8.18 6.23L8.18 6.23Q7.98 6.29 7.79 6.40L7.79 6.40L7.79 6.40Q7.59 6.51 7.45 6.65L7.45 6.65L7.45 6.65Q7.31 6.79 7.22 6.99L7.22 6.99L7.22 6.99Q7.14 7.20 7.14 7.44L7.14 7.44L7.14 7.44Q7.14 8.68 8.40 8.68L8.40 8.68L8.40 8.68Q8.58 8.68 8.76 8.63L8.76 8.63L8.76 8.63Q8.94 8.58 9.06 8.50L9.06 8.50L9.06 8.50Q9.18 8.43 9.28 8.35L9.28 8.35L9.28 8.35Q9.38 8.28 9.42 8.22L9.42 8.22ZM9.10 7.86L9.10 7.86L9.10 7.86Q8.70 7.86 8.70 7.28L8.70 7.28L8.70 7.28Q8.70 6.95 8.87 6.80L8.87 6.80L8.87 6.80Q9.04 6.64 9.32 6.64L9.32 6.64L9.32 7.76L9.32 7.76Q9.32 7.76 9.30 7.79L9.30 7.79L9.30 7.79Q9.27 7.81 9.21 7.84L9.21 7.84L9.21 7.84Q9.16 7.86 9.10 7.86ZM14.44 8.25L14.48 8.20L14.25 7.56L14.25 7.56Q14.09 7.69 13.84 7.75L13.84 7.75L13.84 7.75Q13.60 7.80 13.37 7.80L13.37 7.80L13.37 7.80Q13.26 7.80 13.19 7.79L13.19 7.79L13.19 7.79Q13.12 7.78 13.01 7.72L13.01 7.72L13.01 7.72Q12.90 7.66 12.84 7.55L12.84 7.55L12.84 7.55Q12.77 7.44 12.72 7.22L12.72 7.22L12.72 7.22Q12.67 7 12.67 6.69L12.67 6.69L12.67 6.69Q12.67 5.97 12.83 5.68L12.83 5.68L12.83 5.68Q12.99 5.39 13.42 5.39L13.42 5.39L13.42 5.39Q13.48 5.39 13.52 5.39L13.52 5.39L13.79 6.11L14.45 6.10L14.52 5.01L14.52 5.01Q14.52 5.01 14.42 4.91L14.42 4.91L14.42 4.91Q13.97 4.52 13.16 4.52L13.16 4.52L13.16 4.52Q12.74 4.52 12.38 4.67L12.38 4.67L12.38 4.67Q12.02 4.82 11.75 5.08L11.75 5.08L11.75 5.08Q11.48 5.35 11.33 5.76L11.33 5.76L11.33 5.76Q11.17 6.16 11.17 6.66L11.17 6.66L11.17 6.66Q11.17 7.57 11.67 8.13L11.67 8.13L11.67 8.13Q12.18 8.68 13.12 8.68L13.12 8.68L13.12 8.68Q13.40 8.68 13.65 8.64L13.65 8.64L13.65 8.64Q13.89 8.59 14.04 8.51L14.04 8.51L14.04 8.51Q14.19 8.44 14.29 8.37L14.29 8.37L14.29 8.37Q14.40 8.30 14.44 8.25L14.44 8.25ZM16.08 8.68L16.08 8.68L16.08 8.68Q16.39 8.68 16.65 8.61L16.65 8.61L16.65 8.61Q16.91 8.54 17.02 8.48L17.02 8.48L17.02 8.48Q17.14 8.41 17.21 8.34L17.21 8.34L17.21 7.70L17.21 7.70Q17.15 7.75 17.08 7.77L17.08 7.77L17.08 7.77Q17.00 7.79 16.90 7.79L16.90 7.79L16.90 7.79Q16.67 7.79 16.57 7.67L16.57 7.67L16.57 7.67Q16.46 7.55 16.46 7.18L16.46 7.18L16.46 5.44L17.24 5.44L17.24 4.62L16.47 4.62L16.47 3.53L15.65 3.53L15.18 4.62L14.63 4.79L14.63 5.44L14.95 5.44L14.95 7.03L14.95 7.03Q14.95 7.93 15.20 8.31L15.20 8.31L15.20 8.31Q15.45 8.68 16.08 8.68ZM19.74 6.17L19.74 6.17L19.03 6.17L19.03 5.78L19.03 5.78Q19.03 5.61 19.04 5.50L19.04 5.50L19.04 5.50Q19.05 5.39 19.10 5.29L19.10 5.29L19.10 5.29Q19.14 5.18 19.23 5.14L19.23 5.14L19.23 5.14Q19.32 5.09 19.46 5.09L19.46 5.09L19.46 5.09Q19.62 5.09 19.68 5.33L19.68 5.33L19.68 5.33Q19.74 5.58 19.74 6.17ZM19.37 8.68L19.37 8.68L19.37 8.68Q19.65 8.68 19.95 8.62L19.95 8.62L19.95 8.62Q20.26 8.55 20.60 8.37L20.60 8.37L20.60 8.37Q20.93 8.18 21.10 7.90L21.10 7.90L20.83 7.42L20.83 7.42Q20.70 7.55 20.50 7.63L20.50 7.63L20.50 7.63Q20.31 7.72 20.12 7.77L20.12 7.77L20.12 7.77Q19.93 7.81 19.77 7.81L19.77 7.81L19.77 7.81Q19.60 7.81 19.48 7.78L19.48 7.78L19.48 7.78Q19.37 7.75 19.25 7.67L19.25 7.67L19.25 7.67Q19.14 7.58 19.08 7.41L19.08 7.41L19.08 7.41Q19.03 7.23 19.03 6.95L19.03 6.95L19.03 6.86L21.16 6.86L21.16 6.35L21.16 6.35Q21.16 5.39 20.76 4.96L20.76 4.96L20.76 4.96Q20.37 4.53 19.45 4.53L19.45 4.53L19.45 4.53Q18.49 4.53 17.96 5.06L17.96 5.06L17.96 5.06Q17.43 5.60 17.43 6.65L17.43 6.65L17.43 6.65Q17.43 7.08 17.53 7.44L17.53 7.44L17.53 7.44Q17.63 7.80 17.85 8.08L17.85 8.08L17.85 8.08Q18.07 8.37 18.46 8.53L18.46 8.53L18.46 8.53Q18.84 8.68 19.37 8.68ZM21.67 5.25L21.67 6.42L24.46 6.42L24.46 5.25L21.67 5.25ZM28.28 8.25L28.32 8.20L28.09 7.56L28.09 7.56Q27.93 7.69 27.68 7.75L27.68 7.75L27.68 7.75Q27.44 7.80 27.21 7.80L27.21 7.80L27.21 7.80Q27.10 7.80 27.03 7.79L27.03 7.79L27.03 7.79Q26.96 7.78 26.85 7.72L26.85 7.72L26.85 7.72Q26.74 7.66 26.68 7.55L26.68 7.55L26.68 7.55Q26.61 7.44 26.56 7.22L26.56 7.22L26.56 7.22Q26.51 7 26.51 6.69L26.51 6.69L26.51 6.69Q26.51 5.97 26.67 5.68L26.67 5.68L26.67 5.68Q26.83 5.39 27.26 5.39L27.26 5.39L27.26 5.39Q27.32 5.39 27.36 5.39L27.36 5.39L27.63 6.11L28.29 6.10L28.36 5.01L28.36 5.01Q28.36 5.01 28.26 4.91L28.26 4.91L28.26 4.91Q27.81 4.52 27.00 4.52L27.00 4.52L27.00 4.52Q26.58 4.52 26.22 4.67L26.22 4.67L26.22 4.67Q25.86 4.82 25.59 5.08L25.59 5.08L25.59 5.08Q25.32 5.35 25.17 5.76L25.17 5.76L25.17 5.76Q25.01 6.16 25.01 6.66L25.01 6.66L25.01 6.66Q25.01 7.57 25.51 8.13L25.51 8.13L25.51 8.13Q26.02 8.68 26.96 8.68L26.96 8.68L26.96 8.68Q27.24 8.68 27.49 8.64L27.49 8.64L27.49 8.64Q27.73 8.59 27.88 8.51L27.88 8.51L27.88 8.51Q28.03 8.44 28.13 8.37L28.13 8.37L28.13 8.37Q28.24 8.30 28.28 8.25L28.28 8.25ZM30.70 8.12L30.70 8.12L30.70 8.12Q30.27 8.12 30.27 7.24L30.27 7.24L30.27 5.73L30.27 5.73Q30.27 5.43 30.38 5.26L30.38 5.26L30.38 5.26Q30.50 5.10 30.70 5.10L30.70 5.10L30.70 5.10Q31.13 5.10 31.13 6.01L31.13 6.01L31.13 7.49L31.13 7.49Q31.13 7.78 31.02 7.95L31.02 7.95L31.02 7.95Q30.91 8.12 30.70 8.12ZM30.66 8.68L30.66 8.68L30.66 8.68Q31.77 8.68 32.29 8.17L32.29 8.17L32.29 8.17Q32.80 7.66 32.80 6.58L32.80 6.58L32.80 6.58Q32.80 5.55 32.31 5.04L32.31 5.04L32.31 5.04Q31.83 4.53 30.73 4.53L30.73 4.53L30.73 4.53Q29.61 4.53 29.11 5.06L29.11 5.06L29.11 5.06Q28.61 5.60 28.61 6.65L28.61 6.65L28.61 6.65Q28.61 7.71 29.10 8.20L29.10 8.20L29.10 8.20Q29.60 8.68 30.66 8.68ZM33.31 8.59L34.82 8.59L34.82 5.87L34.82 5.87Q34.83 5.86 34.85 5.84L34.85 5.84L34.85 5.84Q34.88 5.81 34.89 5.81L34.89 5.81L34.89 5.81Q34.90 5.80 34.93 5.77L34.93 5.77L34.93 5.77Q34.95 5.75 34.97 5.74L34.97 5.74L34.97 5.74Q34.98 5.74 35.00 5.72L35.00 5.72L35.00 5.72Q35.03 5.70 35.05 5.70L35.05 5.70L35.05 5.70Q35.07 5.69 35.09 5.68L35.09 5.68L35.09 5.68Q35.12 5.67 35.14 5.66L35.14 5.66L35.14 5.66Q35.16 5.66 35.18 5.65L35.18 5.65L35.18 5.65Q35.21 5.65 35.24 5.65L35.24 5.65L35.24 5.65Q35.63 5.65 35.61 6.09L35.61 6.09L35.61 8.59L37.15 8.59L37.15 6.36L37.15 6.36Q37.15 6.09 37.14 5.87L37.14 5.87L37.14 5.87Q37.37 5.65 37.51 5.65L37.51 5.65L37.51 5.65Q37.71 5.65 37.80 5.76L37.80 5.76L37.80 5.76Q37.90 5.88 37.90 6.09L37.90 6.09L37.90 8.59L39.42 8.59L39.42 6.22L39.42 6.22Q39.42 5.56 39.31 5.19L39.31 5.19L39.31 5.19Q39.20 4.83 38.95 4.68L38.95 4.68L38.95 4.68Q38.71 4.53 38.27 4.53L38.27 4.53L38.27 4.53Q37.87 4.53 37.54 4.77L37.54 4.77L37.54 4.77Q37.21 5.01 37.05 5.28L37.05 5.28L37.05 5.28Q36.95 4.88 36.70 4.70L36.70 4.70L36.70 4.70Q36.46 4.53 35.99 4.53L35.99 4.53L35.99 4.53Q35.81 4.53 35.62 4.60L35.62 4.60L35.62 4.60Q35.44 4.67 35.31 4.76L35.31 4.76L35.31 4.76Q35.18 4.85 35.06 4.97L35.06 4.97L35.06 4.97Q34.94 5.08 34.89 5.14L34.89 5.14L34.89 5.14Q34.85 5.19 34.83 5.22L34.83 5.22L34.83 4.62L34.03 4.62L33.03 4.90L33.03 5.39L33.31 5.57L33.31 8.59ZM40.01 8.59L41.52 8.59L41.52 5.87L41.52 5.87Q41.53 5.86 41.55 5.84L41.55 5.84L41.55 5.84Q41.58 5.81 41.59 5.81L41.59 5.81L41.59 5.81Q41.60 5.80 41.63 5.77L41.63 5.77L41.63 5.77Q41.65 5.75 41.67 5.74L41.67 5.74L41.67 5.74Q41.68 5.74 41.71 5.72L41.71 5.72L41.71 5.72Q41.73 5.70 41.75 5.70L41.75 5.70L41.75 5.70Q41.77 5.69 41.79 5.68L41.79 5.68L41.79 5.68Q41.82 5.67 41.84 5.66L41.84 5.66L41.84 5.66Q41.86 5.66 41.89 5.65L41.89 5.65L41.89 5.65Q41.91 5.65 41.94 5.65L41.94 5.65L41.94 5.65Q42.33 5.65 42.31 6.09L42.31 6.09L42.31 8.59L43.85 8.59L43.85 6.36L43.85 6.36Q43.85 6.09 43.84 5.87L43.84 5.87L43.84 5.87Q44.07 5.65 44.21 5.65L44.21 5.65L44.21 5.65Q44.41 5.65 44.51 5.76L44.51 5.76L44.51 5.76Q44.60 5.88 44.60 6.09L44.60 6.09L44.60 8.59L46.12 8.59L46.12 6.22L46.12 6.22Q46.12 5.56 46.01 5.19L46.01 5.19L46.01 5.19Q45.90 4.83 45.65 4.68L45.65 4.68L45.65 4.68Q45.41 4.53 44.97 4.53L44.97 4.53L44.97 4.53Q44.57 4.53 44.24 4.77L44.24 4.77L44.24 4.77Q43.91 5.01 43.75 5.28L43.75 5.28L43.75 5.28Q43.65 4.88 43.40 4.70L43.40 4.70L43.40 4.70Q43.16 4.53 42.69 4.53L42.69 4.53L42.69 4.53Q42.51 4.53 42.32 4.60L42.32 4.60L42.32 4.60Q42.14 4.67 42.01 4.76L42.01 4.76L42.01 4.76Q41.88 4.85 41.76 4.97L41.76 4.97L41.76 4.97Q41.64 5.08 41.60 5.14L41.60 5.14L41.60 5.14Q41.55 5.19 41.53 5.22L41.53 5.22L41.53 4.62L40.74 4.62L39.73 4.90L39.73 5.39L40.01 5.57L40.01 8.59ZM48.81 6.17L48.81 6.17L48.10 6.17L48.10 5.78L48.10 5.78Q48.10 5.61 48.11 5.50L48.11 5.50L48.11 5.50Q48.12 5.39 48.16 5.29L48.16 5.29L48.16 5.29Q48.21 5.18 48.30 5.14L48.30 5.14L48.30 5.14Q48.38 5.09 48.52 5.09L48.52 5.09L48.52 5.09Q48.69 5.09 48.75 5.33L48.75 5.33L48.75 5.33Q48.81 5.58 48.81 6.17ZM48.44 8.68L48.44 8.68L48.44 8.68Q48.72 8.68 49.02 8.62L49.02 8.62L49.02 8.62Q49.33 8.55 49.66 8.37L49.66 8.37L49.66 8.37Q50.00 8.18 50.17 7.90L50.17 7.90L49.90 7.42L49.90 7.42Q49.77 7.55 49.57 7.63L49.57 7.63L49.57 7.63Q49.38 7.72 49.19 7.77L49.19 7.77L49.19 7.77Q49.00 7.81 48.84 7.81L48.84 7.81L48.84 7.81Q48.67 7.81 48.55 7.78L48.55 7.78L48.55 7.78Q48.44 7.75 48.32 7.67L48.32 7.67L48.32 7.67Q48.21 7.58 48.15 7.41L48.15 7.41L48.15 7.41Q48.09 7.23 48.09 6.95L48.09 6.95L48.09 6.86L50.23 6.86L50.23 6.35L50.23 6.35Q50.23 5.39 49.83 4.96L49.83 4.96L49.83 4.96Q49.43 4.53 48.51 4.53L48.51 4.53L48.51 4.53Q47.56 4.53 47.03 5.06L47.03 5.06L47.03 5.06Q46.49 5.60 46.49 6.65L46.49 6.65L46.49 6.65Q46.49 7.08 46.60 7.44L46.60 7.44L46.60 7.44Q46.70 7.80 46.92 8.08L46.92 8.08L46.92 8.08Q47.14 8.37 47.53 8.53L47.53 8.53L47.53 8.53Q47.91 8.68 48.44 8.68ZM50.73 8.59L52.24 8.59L52.24 6.45L52.24 6.45Q52.37 6.20 52.85 6.20L52.85 6.20L52.85 6.20Q53.18 6.20 53.28 6.29L53.28 6.29L53.44 4.63L53.44 4.63Q53.31 4.59 53.20 4.59L53.20 4.59L53.20 4.59Q52.16 4.59 51.97 5.73L51.97 5.73L51.83 4.62L51.45 4.62L50.45 4.87L50.45 5.39L50.73 5.57L50.73 8.59ZM56.88 8.25L56.92 8.20L56.69 7.56L56.69 7.56Q56.53 7.69 56.29 7.75L56.29 7.75L56.29 7.75Q56.04 7.80 55.81 7.80L55.81 7.80L55.81 7.80Q55.71 7.80 55.64 7.79L55.64 7.79L55.64 7.79Q55.57 7.78 55.46 7.72L55.46 7.72L55.46 7.72Q55.35 7.66 55.28 7.55L55.28 7.55L55.28 7.55Q55.22 7.44 55.16 7.22L55.16 7.22L55.16 7.22Q55.11 7 55.11 6.69L55.11 6.69L55.11 6.69Q55.11 5.97 55.27 5.68L55.27 5.68L55.27 5.68Q55.44 5.39 55.86 5.39L55.86 5.39L55.86 5.39Q55.93 5.39 55.96 5.39L55.96 5.39L56.23 6.11L56.89 6.10L56.96 5.01L56.96 5.01Q56.96 5.01 56.86 4.91L56.86 4.91L56.86 4.91Q56.42 4.52 55.60 4.52L55.60 4.52L55.60 4.52Q55.18 4.52 54.82 4.67L54.82 4.67L54.82 4.67Q54.46 4.82 54.19 5.08L54.19 5.08L54.19 5.08Q53.92 5.35 53.77 5.76L53.77 5.76L53.77 5.76Q53.62 6.16 53.62 6.66L53.62 6.66L53.62 6.66Q53.62 7.57 54.12 8.13L54.12 8.13L54.12 8.13Q54.62 8.68 55.57 8.68L55.57 8.68L55.57 8.68Q55.85 8.68 56.09 8.64L56.09 8.64L56.09 8.64Q56.34 8.59 56.48 8.51L56.48 8.51L56.48 8.51Q56.63 8.44 56.73 8.37L56.73 8.37L56.73 8.37Q56.84 8.30 56.88 8.25L56.88 8.25ZM59.52 6.17L59.52 6.17L58.81 6.17L58.81 5.78L58.81 5.78Q58.81 5.61 58.83 5.50L58.83 5.50L58.83 5.50Q58.84 5.39 58.88 5.29L58.88 5.29L58.88 5.29Q58.92 5.18 59.01 5.14L59.01 5.14L59.01 5.14Q59.10 5.09 59.24 5.09L59.24 5.09L59.24 5.09Q59.40 5.09 59.46 5.33L59.46 5.33L59.46 5.33Q59.52 5.58 59.52 6.17ZM59.15 8.68L59.15 8.68L59.15 8.68Q59.43 8.68 59.74 8.62L59.74 8.62L59.74 8.62Q60.05 8.55 60.38 8.37L60.38 8.37L60.38 8.37Q60.71 8.18 60.89 7.90L60.89 7.90L60.61 7.42L60.61 7.42Q60.48 7.55 60.29 7.63L60.29 7.63L60.29 7.63Q60.09 7.72 59.90 7.77L59.90 7.77L59.90 7.77Q59.71 7.81 59.55 7.81L59.55 7.81L59.55 7.81Q59.38 7.81 59.27 7.78L59.27 7.78L59.27 7.78Q59.15 7.75 59.04 7.67L59.04 7.67L59.04 7.67Q58.93 7.58 58.87 7.41L58.87 7.41L58.87 7.41Q58.81 7.23 58.81 6.95L58.81 6.95L58.81 6.86L60.94 6.86L60.94 6.35L60.94 6.35Q60.94 5.39 60.55 4.96L60.55 4.96L60.55 4.96Q60.15 4.53 59.23 4.53L59.23 4.53L59.23 4.53Q58.27 4.53 57.74 5.06L57.74 5.06L57.74 5.06Q57.21 5.60 57.21 6.65L57.21 6.65L57.21 6.65Q57.21 7.08 57.31 7.44L57.31 7.44L57.31 7.44Q57.41 7.80 57.64 8.08L57.64 8.08L57.64 8.08Q57.86 8.37 58.24 8.53L58.24 8.53L58.24 8.53Q58.63 8.68 59.15 8.68Z"></path></g><!----><g data-v-d3f97b9e="" id="4b35bd97-701a-42f9-b9ce-b56b90f203c5" transform="matrix(1.0645328266329572,0,0,1.0645328266329572,-7.773424120251335,-7.506961820409877)" stroke="none" fill="black"><path d="M89.3 59.3c.9-1.1 2-2.5 2.9-4.6 1.8-4.2.1-11.1-.2-12.1-.2-.9-.8-3.7-2.1-5.9-.7-1.5-2.6-3.1-3.4-3.7-3-2.5-3.9-2.1-4.4-1.9-.7.3-1.3 1.1-.9 2.3.5 1.4 3.1 5.9-4.3 18.4-.6 1-2.3 2.9-4.6 4.7h-.1c-.9.7-1.9 1.4-2.9 2.1-.1 0-.1.1-.2.1-1.7 1-3.5 1.8-5 2.1-.6.1-2 .2-2 .2-8.8.7-27.6-1-33.7-1.5l-2.2-4.8c4.1-.4 8.3-1.1 11.1-2.4 1.3-.6 2.9-1.2 4.7-1.8 3.4-1.2 9.2-3.2 11.6-3.6 1.2-.2 2.7-.1 3.6.2 0 0 2.7.7 3.3.7.6 0 2.5-.1 3.6-.5.8-.3 3.4-1.6 7.1-1.2.8.1 1.4 0 1.4 0 .8 0 1.5-.6 1.6-1.5l.1-3c0-1.8-1.7-1.6-1.7-1.6-.8 0-1.4-.3-1.8-.8-.7-.8-.7-2.2-.5-3.1.2-.9.8-1.6 1.5-2.5.8-1 1.8-2.3 2.7-4.2 1.7-3.8.1-10-.2-11-.1-.8-.7-3.4-1.9-5.4-.7-1.3-2.3-2.8-3-3.3-2.5-2-3.4-2-4.2-1.7-.7.3-1.3 1.1-.9 2.3.4 1.2 3.6 5.9-3.9 16.4-.9 1.3-4.6 5.9-9.5 7.5-1.3.4-5 .9-7.9.9-5.6 0-9.6-.4-16.6-.9-6-.4-11.3-4.1-13.7-9.6l-1.8-4c-.3-.8-1.3-1.1-2-.8-.8.3-1.1 1.3-.8 2l13.5 30.1L35 81.5l4.5 10c.3.6.8.9 1.4.9.2 0 .4 0 .6-.1.8-.3 1.1-1.3.8-2l-3.4-7.6c4.4-.5 9-1.3 12.2-2.6 1.4-.6 3.3-1.3 5.2-2 3.8-1.4 9.8-3.6 13-4 1.4-.2 2.6-.2 3.7.3.4.2.9.5 1.5.6.8.2 1.8.2 2.5.2.6 0 2.8 0 4-.5.4-.2.9-.3 1.6-.5.6-.2 1.3-.3 2.1-.6.2-.1 1.2-.3 4.3-.3h1.6c.8 0 1.5-.6 1.6-1.5l.1-3.4c0-.4-.1-.8-.4-1.1-.3-.3-1.2-.5-1.2-.5-1 0-1.7-.3-2.2-.9-.8-1-.9-2.5-.6-3.5-.1-1.2.5-2 1.4-3.1zm-43.4 19l-.8-14.6c.6 0 1.2.1 1.8.1l1.7 13.8c-.8.3-1.7.5-2.7.7zm-5.5 1L40 63.4c.7 0 1.3.1 2 .1l.8 15.4c-.7.2-1.6.3-2.4.4zM24.5 37l.3 14.5h-.1L23 47.7V36.9c.5.1 1 .1 1.5.1zm4.5.4l.8 13.6c-.6.1-1.3.2-1.9.3l-.3-14c.4 0 .9 0 1.4.1zm4.4.2l1.5 12.2c-.6.2-1.4.4-2.1.6l-.7-12.8h1.3zm4.4.2l1.9 10.1c-.6.2-1.2.5-1.8.7l-1.4-10.8h1.3zm4.3.1l2.2 8.4-1.8.6-1.7-9h1.3zm22.7-13.6c1.1.7 2.5 1.6 3.3 2.1 0 .2-.1.6-.4 1.2l-3.5-2c.2-.5.4-.9.6-1.3zm-2 3.9l3.4 1.9-.6.9-3.4-1.9.6-.9zM60 31.4l3.7 2.1c-.1.1-.1.2-.2.2 0 0-.3.4-.7 1l-3.4-2.9c.3 0 .4-.2.6-.4zm-2.9 2.5l3.9 3.3c-.3.4-.6.8-.9 1.1l-3.5-4.1c.1-.1.3-.2.5-.3zm-3.2 2l4.1 4.7c-.4.5-.8 1.1-1.1 1.7l-3.7-6.1c.2-.1.5-.2.7-.3zm-3.6 1.4l3.8 6.3c-.3 0-.7 0-1 .1-.3 0-.6.1-1 .2l-2.7-6.4c.3 0 .6-.1.9-.2zm-4 .5l2.9 6.9c-.6.2-1.3.4-2 .6l-2-7.4c.4-.1.7-.1 1.1-.1zm-26.4-1.1V41l-1.3-2.9v-1.5c.4 0 .9 0 1.3.1zM37 63.2l.4 16.4-2.4-5.3V63c.6 0 1.3.1 2 .2zm-5.1-.5v4.8l-1.8-4v-1c.6.1 1.2.2 1.8.2zM50 63.9c.6 0 1.2 0 1.8.1l2.1 11.5c-.8.3-1.6.6-2.3.9L50 63.9zm6.8 10.6l-1.9-10.4h1.7l2.6 9.6c-.9.2-1.7.5-2.4.8zm5.2-1.8L59.7 64c.5 0 1 0 1.5-.1l3.4 8c-.9.3-1.7.5-2.6.8zm5.5-1.5l-3.2-7.5s.9-.2 1.3-.3l4.4 7.4c-.4 0-2 .2-2.5.4zm11.9-17.9l4.1 2.3c-.3.4-.6.9-.9 1.3l-4.1-2.3c.3-.5.6-.9.9-1.3zm2.1-4.4c1.3.8 3 2 3.9 2.4 0 .2-.1.8-.5 1.6l-4.2-2.4c.3-.6.6-1.1.8-1.6zm-5.3 8l4.5 2.5c-.2.2-.3.4-.3.4s-.4.5-.9 1.2l-4-3.4c.2-.3.5-.5.7-.7zM73 59.5l4.6 3.9c-.4.5-.9 1.1-1.3 1.5l-4.2-4.8.9-.6zm-3.5 2.3l4.7 5.5c-.6.7-1 1.5-1.4 2.2l-4.3-7.2c.3-.2.7-.4 1-.5z"></path></g><!----><g data-v-d3f97b9e="" id="7dc6eb44-92ff-48af-85b7-999387765977" fill="black" transform="matrix(1.739302528342799,0,0,1.739302528342799,110.53354506653318,56.34746385055851)"><path d="M4.93 7.81L8.81 2.21L7.53 2.21L4.40 6.72L1.26 2.21L-0.01 2.21L3.88 7.81L3.88 11.48L4.93 11.48ZM20.55 2.10C17.74 2.10 15.85 4.21 15.85 6.85C15.85 9.48 17.74 11.59 20.55 11.59C23.37 11.59 25.26 9.48 25.26 6.85C25.26 4.21 23.37 2.10 20.55 2.10ZM20.55 10.57C18.30 10.57 16.90 8.93 16.90 6.85C16.90 4.76 18.30 3.12 20.55 3.12C22.81 3.12 24.21 4.76 24.21 6.85C24.21 8.93 22.81 10.57 20.55 10.57ZM40.66 2.21L40.66 7.52C40.66 9.67 39.23 10.57 37.76 10.57C36.29 10.57 34.87 9.67 34.87 7.52L34.87 2.21L33.82 2.21L33.82 7.49C33.82 9.95 35.45 11.59 37.76 11.59C40.08 11.59 41.71 9.94 41.71 7.49L41.71 2.21ZM51.91 7.92L55.13 7.92L57.37 11.48L58.62 11.48L56.18 7.74C57.22 7.50 58.42 6.90 58.42 5.11C58.42 3.35 57.20 2.21 55.30 2.21L50.86 2.21L50.86 11.48L51.91 11.48ZM51.91 3.21L55.17 3.21C56.49 3.21 57.37 3.93 57.37 5.11C57.37 6.55 56.11 6.93 55.12 6.93L51.91 6.93ZM81.33 2.10C78.51 2.10 76.62 4.21 76.62 6.85C76.62 9.48 78.51 11.59 81.33 11.59C84.14 11.59 86.03 9.48 86.03 6.85C86.03 4.21 84.14 2.10 81.33 2.10ZM81.33 10.57C79.07 10.57 77.67 8.93 77.67 6.85C77.67 4.76 79.07 3.12 81.33 3.12C83.58 3.12 84.98 4.76 84.98 6.85C84.98 8.93 83.58 10.57 81.33 10.57ZM101.65 2.21L101.65 10.01L95.93 2.21L94.71 2.21L94.71 11.48L95.76 11.48L95.76 3.65L101.49 11.48L102.70 11.48L102.70 2.21ZM111.97 2.21L111.97 11.48L118.08 11.48L118.08 10.47L113.02 10.47L113.02 2.21ZM128.79 7.81L132.66 2.21L131.39 2.21L128.25 6.72L125.12 2.21L123.84 2.21L127.74 7.81L127.74 11.48L128.79 11.48ZM157.47 3.22L157.47 2.21L150.78 2.21L150.78 11.48L151.83 11.48L151.83 7.46L156.86 7.46L156.86 6.44L151.83 6.44L151.83 3.22ZM169.34 2.21L168.03 2.21L164.09 11.48L165.26 11.48L166.39 8.79L170.98 8.79L172.12 11.48L173.28 11.48ZM166.80 7.83L168.69 3.30L170.58 7.83ZM182.07 4.65C182.07 4.03 182.43 3.08 184.53 3.08C186.23 3.08 187.01 3.82 187.12 4.75L188.20 4.75C188.12 3.36 187.00 2.10 184.53 2.10C182.21 2.10 181.05 3.15 181.05 4.66C181.05 7.84 187.39 6.69 187.39 8.96C187.39 10.05 186.41 10.60 184.84 10.60C183.23 10.60 181.93 10.05 181.86 8.71L180.77 8.71C180.91 10.37 182.03 11.59 184.77 11.59C187.05 11.59 188.44 10.64 188.44 8.92C188.44 5.68 182.07 6.80 182.07 4.65ZM203.50 2.21L203.50 6.33L198.11 6.33L198.11 2.21L197.06 2.21L197.06 11.48L198.11 11.48L198.11 7.35L203.50 7.35L203.50 11.48L204.55 11.48L204.55 2.21ZM214.87 2.21L213.82 2.21L213.82 11.48L214.87 11.48ZM228.26 2.10C225.44 2.10 223.55 4.21 223.55 6.85C223.55 9.48 225.44 11.59 228.26 11.59C231.07 11.59 232.96 9.48 232.96 6.85C232.96 4.21 231.07 2.10 228.26 2.10ZM228.26 10.57C226.00 10.57 224.60 8.93 224.60 6.85C224.60 4.76 226.00 3.12 228.26 3.12C230.51 3.12 231.91 4.76 231.91 6.85C231.91 8.93 230.51 10.57 228.26 10.57ZM248.58 2.21L248.58 10.01L242.86 2.21L241.64 2.21L241.64 11.48L242.69 11.48L242.69 3.65L248.42 11.48L249.63 11.48L249.63 2.21ZM269.50 4.65C269.50 4.03 269.86 3.08 271.96 3.08C273.66 3.08 274.44 3.82 274.55 4.75L275.63 4.75C275.55 3.36 274.43 2.10 271.96 2.10C269.64 2.10 268.48 3.15 268.48 4.66C268.48 7.84 274.82 6.69 274.82 8.96C274.82 10.05 273.84 10.60 272.27 10.60C270.66 10.60 269.36 10.05 269.29 8.71L268.20 8.71C268.34 10.37 269.46 11.59 272.20 11.59C274.48 11.59 275.87 10.64 275.87 8.92C275.87 5.68 269.50 6.80 269.50 4.65ZM290.93 2.21L290.93 6.33L285.54 6.33L285.54 2.21L284.49 2.21L284.49 11.48L285.54 11.48L285.54 7.35L290.93 7.35L290.93 11.48L291.98 11.48L291.98 2.21ZM305.37 2.10C302.55 2.10 300.66 4.21 300.66 6.85C300.66 9.48 302.55 11.59 305.37 11.59C308.18 11.59 310.07 9.48 310.07 6.85C310.07 4.21 308.18 2.10 305.37 2.10ZM305.37 10.57C303.11 10.57 301.71 8.93 301.71 6.85C301.71 4.76 303.11 3.12 305.37 3.12C307.62 3.12 309.02 4.76 309.02 6.85C309.02 8.93 307.62 10.57 305.37 10.57ZM319.80 8.18L322.92 8.18C324.90 8.18 326.12 7.03 326.12 5.19C326.12 3.37 324.90 2.21 322.92 2.21L318.75 2.21L318.75 11.48L319.80 11.48ZM322.85 3.21C324.31 3.21 325.07 3.96 325.07 5.19C325.07 6.44 324.31 7.20 322.85 7.20L319.80 7.20L319.80 3.21Z"></path></g></svg>