<svg data-v-d3f97b9e="" xmlns="http://www.w3.org/2000/svg" viewBox="0 0 60.34409650505245 60"><!----><!----><!----><!----><g data-v-d3f97b9e="" id="07bc08ba-464a-4ab3-812f-20a7319f62ae" transform="matrix(0.7096885510886382,0,0,0.7096885510886382,-5.6674914171324815,-5.575224557112442)" stroke="none" fill="black"><path d="M89.3 59.3c.9-1.1 2-2.5 2.9-4.6 1.8-4.2.1-11.1-.2-12.1-.2-.9-.8-3.7-2.1-5.9-.7-1.5-2.6-3.1-3.4-3.7-3-2.5-3.9-2.1-4.4-1.9-.7.3-1.3 1.1-.9 2.3.5 1.4 3.1 5.9-4.3 18.4-.6 1-2.3 2.9-4.6 4.7h-.1c-.9.7-1.9 1.4-2.9 2.1-.1 0-.1.1-.2.1-1.7 1-3.5 1.8-5 2.1-.6.1-2 .2-2 .2-8.8.7-27.6-1-33.7-1.5l-2.2-4.8c4.1-.4 8.3-1.1 11.1-2.4 1.3-.6 2.9-1.2 4.7-1.8 3.4-1.2 9.2-3.2 11.6-3.6 1.2-.2 2.7-.1 3.6.2 0 0 2.7.7 3.3.7.6 0 2.5-.1 3.6-.5.8-.3 3.4-1.6 7.1-1.2.8.1 1.4 0 1.4 0 .8 0 1.5-.6 1.6-1.5l.1-3c0-1.8-1.7-1.6-1.7-1.6-.8 0-1.4-.3-1.8-.8-.7-.8-.7-2.2-.5-3.1.2-.9.8-1.6 1.5-2.5.8-1 1.8-2.3 2.7-4.2 1.7-3.8.1-10-.2-11-.1-.8-.7-3.4-1.9-5.4-.7-1.3-2.3-2.8-3-3.3-2.5-2-3.4-2-4.2-1.7-.7.3-1.3 1.1-.9 2.3.4 1.2 3.6 5.9-3.9 16.4-.9 1.3-4.6 5.9-9.5 7.5-1.3.4-5 .9-7.9.9-5.6 0-9.6-.4-16.6-.9-6-.4-11.3-4.1-13.7-9.6l-1.8-4c-.3-.8-1.3-1.1-2-.8-.8.3-1.1 1.3-.8 2l13.5 30.1L35 81.5l4.5 10c.3.6.8.9 1.4.9.2 0 .4 0 .6-.1.8-.3 1.1-1.3.8-2l-3.4-7.6c4.4-.5 9-1.3 12.2-2.6 1.4-.6 3.3-1.3 5.2-2 3.8-1.4 9.8-3.6 13-4 1.4-.2 2.6-.2 3.7.3.4.2.9.5 1.5.6.8.2 1.8.2 2.5.2.6 0 2.8 0 4-.5.4-.2.9-.3 1.6-.5.6-.2 1.3-.3 2.1-.6.2-.1 1.2-.3 4.3-.3h1.6c.8 0 1.5-.6 1.6-1.5l.1-3.4c0-.4-.1-.8-.4-1.1-.3-.3-1.2-.5-1.2-.5-1 0-1.7-.3-2.2-.9-.8-1-.9-2.5-.6-3.5-.1-1.2.5-2 1.4-3.1zm-43.4 19l-.8-14.6c.6 0 1.2.1 1.8.1l1.7 13.8c-.8.3-1.7.5-2.7.7zm-5.5 1L40 63.4c.7 0 1.3.1 2 .1l.8 15.4c-.7.2-1.6.3-2.4.4zM24.5 37l.3 14.5h-.1L23 47.7V36.9c.5.1 1 .1 1.5.1zm4.5.4l.8 13.6c-.6.1-1.3.2-1.9.3l-.3-14c.4 0 .9 0 1.4.1zm4.4.2l1.5 12.2c-.6.2-1.4.4-2.1.6l-.7-12.8h1.3zm4.4.2l1.9 10.1c-.6.2-1.2.5-1.8.7l-1.4-10.8h1.3zm4.3.1l2.2 8.4-1.8.6-1.7-9h1.3zm22.7-13.6c1.1.7 2.5 1.6 3.3 2.1 0 .2-.1.6-.4 1.2l-3.5-2c.2-.5.4-.9.6-1.3zm-2 3.9l3.4 1.9-.6.9-3.4-1.9.6-.9zM60 31.4l3.7 2.1c-.1.1-.1.2-.2.2 0 0-.3.4-.7 1l-3.4-2.9c.3 0 .4-.2.6-.4zm-2.9 2.5l3.9 3.3c-.3.4-.6.8-.9 1.1l-3.5-4.1c.1-.1.3-.2.5-.3zm-3.2 2l4.1 4.7c-.4.5-.8 1.1-1.1 1.7l-3.7-6.1c.2-.1.5-.2.7-.3zm-3.6 1.4l3.8 6.3c-.3 0-.7 0-1 .1-.3 0-.6.1-1 .2l-2.7-6.4c.3 0 .6-.1.9-.2zm-4 .5l2.9 6.9c-.6.2-1.3.4-2 .6l-2-7.4c.4-.1.7-.1 1.1-.1zm-26.4-1.1V41l-1.3-2.9v-1.5c.4 0 .9 0 1.3.1zM37 63.2l.4 16.4-2.4-5.3V63c.6 0 1.3.1 2 .2zm-5.1-.5v4.8l-1.8-4v-1c.6.1 1.2.2 1.8.2zM50 63.9c.6 0 1.2 0 1.8.1l2.1 11.5c-.8.3-1.6.6-2.3.9L50 63.9zm6.8 10.6l-1.9-10.4h1.7l2.6 9.6c-.9.2-1.7.5-2.4.8zm5.2-1.8L59.7 64c.5 0 1 0 1.5-.1l3.4 8c-.9.3-1.7.5-2.6.8zm5.5-1.5l-3.2-7.5s.9-.2 1.3-.3l4.4 7.4c-.4 0-2 .2-2.5.4zm11.9-17.9l4.1 2.3c-.3.4-.6.9-.9 1.3l-4.1-2.3c.3-.5.6-.9.9-1.3zm2.1-4.4c1.3.8 3 2 3.9 2.4 0 .2-.1.8-.5 1.6l-4.2-2.4c.3-.6.6-1.1.8-1.6zm-5.3 8l4.5 2.5c-.2.2-.3.4-.3.4s-.4.5-.9 1.2l-4-3.4c.2-.3.5-.5.7-.7zM73 59.5l4.6 3.9c-.4.5-.9 1.1-1.3 1.5l-4.2-4.8.9-.6zm-3.5 2.3l4.7 5.5c-.6.7-1 1.5-1.4 2.2l-4.3-7.2c.3-.2.7-.4 1-.5z"></path></g><!----></svg>